<svg xmlns="http://www.w3.org/2000/svg" width="155" height="156" viewBox="0 0 155 156" fill="none">
  <path d="M76.8995 8.09762C76.8995 3.87184 80.3335 0.407055 84.5388 0.823284C97.0345 2.06012 109.084 6.31777 119.627 13.2778C132.305 21.6475 142.246 33.5566 148.216 47.5265C154.185 61.4964 155.92 76.9119 153.205 91.8592C150.491 106.807 143.446 120.627 132.945 131.606C122.444 142.585 108.951 150.237 94.1389 153.614C79.3271 156.991 63.8497 155.944 49.6281 150.602C35.4064 145.26 23.067 135.858 14.1415 123.565C6.71945 113.342 1.93 101.494 0.138537 89.0652C-0.464346 84.8827 2.84425 81.2979 7.06585 81.1099C11.2874 80.922 14.8142 84.2068 15.5184 88.3735C17.1122 97.805 20.8649 106.778 26.5248 114.574C33.6891 124.442 43.5938 131.988 55.0092 136.276C66.4246 140.564 78.8481 141.405 90.7372 138.694C102.626 135.984 113.458 129.841 121.886 121.029C130.315 112.216 135.97 101.123 138.149 89.1246C140.328 77.1267 138.935 64.7529 134.144 53.5395C129.352 42.3262 121.373 32.767 111.196 26.0487C103.156 20.7412 94.0249 17.3914 84.5318 16.2187C80.338 15.7006 76.8995 12.3234 76.8995 8.09762Z" fill="url(#paint0_linear_0_1655)"/>
  <defs>
    <linearGradient id="paint0_linear_0_1655" x1="-20.974" y1="147.179" x2="163.45" y2="-44.5353" gradientUnits="userSpaceOnUse">
      <stop stop-color="#10E7FF"/>
      <stop offset="1" stop-color="#8437FF"/>
    </linearGradient>
  </defs>
</svg>