<svg xmlns="http://www.w3.org/2000/svg" width="78" height="156" viewBox="0 0 78 156" fill="none">
  <path d="M0.353074 8.09762C0.353074 3.87184 3.7871 0.406994 7.99234 0.823101C25.756 2.58082 42.4598 10.4289 55.1922 23.1613C69.7365 37.7055 77.9073 57.4318 77.9073 78.0004C77.9073 98.5691 69.7365 118.295 55.1922 132.84C42.4598 145.572 25.756 153.42 7.99236 155.178C3.78712 155.594 0.353088 152.129 0.353088 147.903C0.353088 143.677 3.79163 140.3 7.98553 139.782C21.6823 138.091 34.5107 131.88 44.3715 122.019C56.0459 110.344 62.6045 94.5105 62.6044 78.0004C62.6044 61.4903 56.0458 45.6565 44.3714 33.9821C34.5106 24.1213 21.6823 17.9103 7.98551 16.2185C3.79161 15.7005 0.353074 12.3234 0.353074 8.09762Z" fill="url(#paint0_linear_0_1660)"/>
  <defs>
    <linearGradient id="paint0_linear_0_1660" x1="-97.5204" y1="147.179" x2="86.9036" y2="-44.5353" gradientUnits="userSpaceOnUse">
      <stop stop-color="#FFB47D"/>
      <stop offset="1" stop-color="#FF4098"/>
    </linearGradient>
  </defs>
</svg>