<svg xmlns="http://www.w3.org/2000/svg" width="79" height="110" viewBox="0 0 79 110" fill="none">
  <path d="M0.806932 8.09762C0.806932 3.87184 4.24088 0.40707 8.44611 0.823299C18.9883 1.86679 29.2332 5.06224 38.536 10.2422C50.0733 16.6663 59.7791 25.9301 66.7338 37.1555C73.6885 48.3809 77.6617 61.1963 78.277 74.3872C78.773 85.0233 77.0727 95.6195 73.3131 105.524C71.8134 109.474 67.182 111.006 63.3983 109.125C59.6145 107.243 58.1215 102.661 59.5249 98.6749C62.1795 91.1356 63.3653 83.1321 62.9907 75.1002C62.4969 64.5121 59.3076 54.2254 53.7252 45.215C48.1428 36.2045 40.3521 28.7687 31.0914 23.6121C24.0663 19.7005 16.3719 17.1987 8.43926 16.2187C4.24536 15.7006 0.806932 12.3234 0.806932 8.09762Z" fill="url(#paint0_linear_0_1665)"/>
  <defs>
    <linearGradient id="paint0_linear_0_1665" x1="-97.0665" y1="147.179" x2="87.3575" y2="-44.5353" gradientUnits="userSpaceOnUse">
      <stop stop-color="#D820F9"/>
      <stop offset="1" stop-color="#7202FF"/>
    </linearGradient>
  </defs>
</svg>